<?xml version="1.0" encoding="UTF-8" standalone="no"?>
<!-- This is a Stata 16.0 generated SVG file (http://www.stata.com) -->

<svg version="1.1" width="5.50in" height="4.00in" viewBox="0 0 3960 2880" xmlns="http://www.w3.org/2000/svg" xmlns:xlink="http://www.w3.org/1999/xlink">
	<desc>Stata Graph - Graph</desc>
	<rect x="0" y="0" width="3960" height="2880" style="fill:#FFFFFF;stroke:none"/>
	<rect x="0.00" y="0.00" width="3959.88" height="2880.00" style="fill:#FFFFFF"/>
	<rect x="2.88" y="2.88" width="3954.12" height="2874.24" style="fill:none;stroke:#FFFFFF;stroke-width:5.76"/>
	<rect x="63.36" y="63.36" width="3833.16" height="2753.28" style="fill:#FFFFFF"/>
	<rect x="66.24" y="66.24" width="3827.40" height="2747.52" style="fill:none;stroke:#FFFFFF;stroke-width:5.76"/>
	<rect x="63.36" y="63.36" width="3008.86" height="592.04" style="fill:#440154"/>
	<rect x="65.52" y="65.52" width="3004.54" height="587.72" style="fill:none;stroke:#440154;stroke-width:4.32"/>
	<rect x="127.83" y="110.88" width="2879.91" height="497.00" style="fill:#440154"/>
	<rect x="129.99" y="113.04" width="2875.59" height="492.68" style="fill:none;stroke:#440154;stroke-width:4.32"/>
	<circle cx="1567.66" cy="359.50" r="16.73" style="fill:#000004;fill-opacity:0.00"/>
	<circle cx="1567.66" cy="359.50" r="13.49" style="fill:none;stroke:#000004;stroke-opacity:0.00;stroke-width:6.48"/>
	<text x="1567.79" y="377.38" style="font-family:'Helvetica';font-weight:bold;font-size:89.97px;fill:#D0D0d0" text-anchor="middle">fxsize(100) fysize(25)</text>
	<rect x="3072.22" y="63.36" width="824.30" height="592.04" style="fill:#31688E"/>
	<rect x="3074.38" y="65.52" width="819.98" height="587.72" style="fill:none;stroke:#31688E;stroke-width:4.32"/>
	<rect x="3124.32" y="110.88" width="719.98" height="497.00" style="fill:#31688E"/>
	<rect x="3126.48" y="113.04" width="715.66" height="492.68" style="fill:none;stroke:#31688E;stroke-width:4.32"/>
	<circle cx="3484.30" cy="359.50" r="16.73" style="fill:#000004;fill-opacity:0.00"/>
	<circle cx="3484.30" cy="359.50" r="13.49" style="fill:none;stroke:#000004;stroke-opacity:0.00;stroke-width:6.48"/>
	<text x="3484.30" y="332.33" style="font-family:'Helvetica';font-weight:bold;font-size:89.97px;fill:#A0A0a0" text-anchor="middle">fxsize(25)</text>
	<text x="3484.30" y="422.30" style="font-family:'Helvetica';font-weight:bold;font-size:89.97px;fill:#A0A0a0" text-anchor="middle"> fysize(25)</text>
	<rect x="63.36" y="655.40" width="3008.86" height="2161.24" style="fill:#35B779"/>
	<rect x="65.52" y="657.56" width="3004.54" height="2156.92" style="fill:none;stroke:#35B779;stroke-width:4.32"/>
	<rect x="127.83" y="702.92" width="2879.91" height="2066.19" style="fill:#35B779"/>
	<rect x="129.99" y="705.08" width="2875.59" height="2061.87" style="fill:none;stroke:#35B779;stroke-width:4.32"/>
	<circle cx="1567.66" cy="1736.14" r="16.73" style="fill:#000004;fill-opacity:0.00"/>
	<circle cx="1567.66" cy="1736.14" r="13.49" style="fill:none;stroke:#000004;stroke-opacity:0.00;stroke-width:6.48"/>
	<text x="1567.79" y="1754.01" style="font-family:'Helvetica';font-weight:bold;font-size:89.97px;fill:#505050" text-anchor="middle">fxsize(100) fysize(100)</text>
	<rect x="3072.22" y="655.40" width="824.30" height="2161.24" style="fill:#FDE725"/>
	<rect x="3074.38" y="657.56" width="819.98" height="2156.92" style="fill:none;stroke:#FDE725;stroke-width:4.32"/>
	<rect x="3124.32" y="702.92" width="719.98" height="2066.19" style="fill:#FDE725"/>
	<rect x="3126.48" y="705.08" width="715.66" height="2061.87" style="fill:none;stroke:#FDE725;stroke-width:4.32"/>
	<circle cx="3484.30" cy="1736.14" r="16.73" style="fill:#000004;fill-opacity:0.00"/>
	<circle cx="3484.30" cy="1736.14" r="13.49" style="fill:none;stroke:#000004;stroke-opacity:0.00;stroke-width:6.48"/>
	<text x="3484.30" y="1708.97" style="font-family:'Helvetica';font-weight:bold;font-size:89.97px;fill:#202020" text-anchor="middle">fxsize(25)</text>
	<text x="3484.30" y="1798.94" style="font-family:'Helvetica';font-weight:bold;font-size:89.97px;fill:#202020" text-anchor="middle">fysize(100)</text>
</svg>
